<svg width="13.333252" height="13.333344" viewBox="0 0 13.3333 13.3333" fill="none" xmlns="http://www.w3.org/2000/svg" xmlns:xlink="http://www.w3.org/1999/xlink">
	<desc>
			Created with Pixso.
	</desc>
	<defs/>
	<path id="offline_bolt" d="M6.2666 11.3333L9.16675 5.66666L7.16675 5.66666L7.16675 2L4.16675 7.66666L6.2666 7.66666L6.2666 11.3333ZM6.66675 13.3333C5.74438 13.3333 4.87769 13.1583 4.06665 12.8083C3.25562 12.4583 2.55005 11.9833 1.94995 11.3833C1.3501 10.7833 0.875 10.0778 0.524902 9.26666C0.175049 8.45557 0 7.5889 0 6.66666C0 5.74445 0.175049 4.87778 0.524902 4.06668C0.875 3.25555 1.3501 2.54999 1.94995 1.95001C2.55005 1.35001 3.25562 0.875 4.06665 0.524994C4.87769 0.174988 5.74438 0 6.66675 0C7.58887 0 8.45557 0.174988 9.2666 0.524994C10.0779 0.875 10.7834 1.35001 11.3833 1.95001C11.9834 2.54999 12.4583 3.25555 12.8083 4.06668C13.1584 4.87778 13.3333 5.74445 13.3333 6.66666C13.3333 7.5889 13.1584 8.45557 12.8083 9.26666C12.4583 10.0778 11.9834 10.7833 11.3833 11.3833C10.7834 11.9833 10.0779 12.4583 9.2666 12.8083C8.45557 13.1583 7.58887 13.3333 6.66675 13.3333Z" fill="#FFFFFF" fill-opacity="1.000000" fill-rule="nonzero"/>
</svg>
