<svg xmlns="http://www.w3.org/2000/svg" xmlns:xlink="http://www.w3.org/1999/xlink" style="margin:auto;background:#ffffff;display:block;z-index:1;position:relative" width="1366" height="607" preserveAspectRatio="xMidYMid" viewBox="0 0 1366 607">
<g transform="translate(683,303.5) scale(1,1) translate(-683,-303.5)"><path id="path0" d="M 122.91088124880017 502.4234125792314
c 0 20.44215758666386 -5.001804515885838 5.871683562126854 -10.873488078012691 5.871683562126854
S 101.1639050927748 522.8655701658953 101.1639050927748 502.4234125792314
s 5.001804515885838 -5.871683562126854 10.873488078012691 -5.871683562126854
S 122.91088124880017 481.98125499256753 122.91088124880017 502.4234125792314
z" fill="none" stroke="none"></path>
<circle cx="0" cy="0" r="7.501695307022041" fill="#51cacc" opacity="0.9">
  <animateMotion begin="-9.855728417267711s" dur="10s" repeatCount="indefinite">
    <mpath xlink:href="#path0"></mpath>
  </animateMotion>
</circle><path id="path1" d="M 386.2969445990153 172.49927270307822
c 0 26.5962624771486 -6.50759613802572 7.639351988117151 -14.14694812614287 7.639351988117151
S 358.00304834672954 199.09553518022682 358.00304834672954 172.49927270307822
s 6.50759613802572 -7.639351988117151 14.14694812614287 -7.639351988117151
S 386.2969445990153 145.90301022592962 386.2969445990153 172.49927270307822
z" fill="none" stroke="none"></path>
<circle cx="0" cy="0" r="5.1659914827724025" fill="#de9dd6" opacity="0.9">
  <animateMotion begin="-5.825434437248365s" dur="10s" repeatCount="indefinite">
    <mpath xlink:href="#path1"></mpath>
  </animateMotion>
</circle><path id="path2" d="M 88.76067692366446 497.3948906756339
c 0 31.58751929202283 -7.728861103367287 9.073010860474643 -16.80187196384193 9.073010860474643
S 55.1569329959806 528.9824099676567 55.1569329959806 497.3948906756339
s 7.728861103367287 -9.073010860474643 16.80187196384193 -9.073010860474643
S 88.76067692366446 465.8073713836111 88.76067692366446 497.3948906756339
z" fill="none" stroke="none"></path>
<circle cx="0" cy="0" r="5.016567194495321" fill="#ff708e" opacity="0.9">
  <animateMotion begin="-5.331556014606928s" dur="10s" repeatCount="indefinite">
    <mpath xlink:href="#path2"></mpath>
  </animateMotion>
</circle><path id="path3" d="M 1150.4811478060333 150.11282619364218
c 0 24.95990351838084 -6.107210435348503 7.169333989322157 -13.27654442467066 7.169333989322157
S 1123.928058956692 175.07272971202303 1123.928058956692 150.11282619364218
s 6.107210435348503 -7.169333989322157 13.27654442467066 -7.169333989322157
S 1150.4811478060333 125.15292267526134 1150.4811478060333 150.11282619364218
z" fill="none" stroke="none"></path>
<circle cx="0" cy="0" r="4.810362090243272" fill="#ff708e" opacity="0.9">
  <animateMotion begin="-1.430195343593914s" dur="10s" repeatCount="indefinite">
    <mpath xlink:href="#path3"></mpath>
  </animateMotion>
</circle><path id="path4" d="M 614.8892311747321 468.9938615586161
c 0 32.01402529406818 -7.833218954931575 9.195517903615329 -17.028736858546903 9.195517903615329
S 580.8317574576382 501.0078868526843 580.8317574576382 468.9938615586161
s 7.833218954931575 -9.195517903615329 17.028736858546903 -9.195517903615329
S 614.8892311747321 436.97983626454794 614.8892311747321 468.9938615586161
z" fill="none" stroke="none"></path>
<circle cx="0" cy="0" r="4.177971606344419" fill="#e0ff77" opacity="0.9">
  <animateMotion begin="-9.61975261312938s" dur="10s" repeatCount="indefinite">
    <mpath xlink:href="#path4"></mpath>
  </animateMotion>
</circle><path id="path5" d="M 625.5652991128356 270.59825008031635
c 0 35.122053783297126 -8.593694010806741 10.088249490947046 -18.68194350175379 10.088249490947046
S 588.201412109328 305.7203038636135 588.201412109328 270.59825008031635
s 8.593694010806741 -10.088249490947046 18.68194350175379 -10.088249490947046
S 625.5652991128356 235.47619629701921 625.5652991128356 270.59825008031635
z" fill="none" stroke="none"></path>
<circle cx="0" cy="0" r="4.56709671198725" fill="#51cacc" opacity="0.9">
  <animateMotion begin="-8.3067307850439s" dur="10s" repeatCount="indefinite">
    <mpath xlink:href="#path5"></mpath>
  </animateMotion>
</circle><path id="path6" d="M 742.8939782479888 10.933199390441
c 0 23.13330857038073 -5.660277628922945 6.644673738300849 -12.304951367223794 6.644673738300849
S 718.2840755135412 34.06650796082173 718.2840755135412 10.933199390441
s 5.660277628922945 -6.644673738300849 12.304951367223794 -6.644673738300849
S 742.8939782479888 -12.20010917993973 742.8939782479888 10.933199390441
z" fill="none" stroke="none"></path>
<circle cx="0" cy="0" r="6.384339508530406" fill="#e0ff77" opacity="0.9">
  <animateMotion begin="-9.346411711048647s" dur="10s" repeatCount="indefinite">
    <mpath xlink:href="#path6"></mpath>
  </animateMotion>
</circle><path id="path7" d="M 1045.9663668477158 576.3641818682361
c 0 35.0416411847414 -8.574018587755873 10.065152255191679 -18.639170842947554 10.065152255191679
S 1008.6880251618206 611.4058230529774 1008.6880251618206 576.3641818682361
s 8.574018587755873 -10.065152255191679 18.639170842947554 -10.065152255191679
S 1045.9663668477158 541.3225406834947 1045.9663668477158 576.3641818682361
z" fill="none" stroke="none"></path>
<circle cx="0" cy="0" r="7.0824314783317845" fill="#de9dd6" opacity="0.9">
  <animateMotion begin="-7.148948329918365s" dur="10s" repeatCount="indefinite">
    <mpath xlink:href="#path7"></mpath>
  </animateMotion>
</circle><path id="path8" d="M 637.4778887804591 460.5134342580666
c 0 34.25788514440343 -8.382248492779562 9.840030839349922 -18.22227933212948 9.840030839349922
S 601.0333301162002 494.77131940247 601.0333301162002 460.5134342580666
s 8.382248492779562 -9.840030839349922 18.22227933212948 -9.840030839349922
S 637.4778887804591 426.25554911366316 637.4778887804591 460.5134342580666
z" fill="none" stroke="none"></path>
<circle cx="0" cy="0" r="4.292683792242735" fill="#51cacc" opacity="0.9">
  <animateMotion begin="-0.11020266457244077s" dur="10s" repeatCount="indefinite">
    <mpath xlink:href="#path8"></mpath>
  </animateMotion>
</circle><path id="path9" d="M 1166.970600522314 476.7215686367304
c 0 24.294624154096102 -5.94442931430011 6.9782431080914336 -12.922672422391543 6.9782431080914336
S 1141.125255677531 501.0161927908265 1141.125255677531 476.7215686367304
s 5.94442931430011 -6.9782431080914336 12.922672422391543 -6.9782431080914336
S 1166.970600522314 452.4269444826343 1166.970600522314 476.7215686367304
z" fill="none" stroke="none"></path>
<circle cx="0" cy="0" r="5.654494156489954" fill="#de9dd6" opacity="0.9">
  <animateMotion begin="-7.260227998158577s" dur="10s" repeatCount="indefinite">
    <mpath xlink:href="#path9"></mpath>
  </animateMotion>
</circle><path id="path10" d="M 213.18237947537395 383.46713614470536
c 0 20.64617690575559 -5.051724136514665 5.93028485590852 -10.982008992423184 5.93028485590852
S 191.2183614905276 404.11331305046093 191.2183614905276 383.46713614470536
s 5.051724136514665 -5.93028485590852 10.982008992423184 -5.93028485590852
S 213.18237947537395 362.8209592389498 213.18237947537395 383.46713614470536
z" fill="none" stroke="none"></path>
<circle cx="0" cy="0" r="5.611366058595966" fill="#de9dd6" opacity="0.9">
  <animateMotion begin="-4.417172625792151s" dur="10s" repeatCount="indefinite">
    <mpath xlink:href="#path10"></mpath>
  </animateMotion>
</circle><path id="path11" d="M 735.2355893886075 212.82338862463445
c 0 33.49223301645877 -8.19490807849523 9.620109483450923 -17.815017561946153 9.620109483450923
S 699.6055542647151 246.31562164109323 699.6055542647151 212.82338862463445
s 8.19490807849523 -9.620109483450923 17.815017561946153 -9.620109483450923
S 735.2355893886075 179.33115560817566 735.2355893886075 212.82338862463445
z" fill="none" stroke="none"></path>
<circle cx="0" cy="0" r="7.27435373104645" fill="#ff708e" opacity="0.9">
  <animateMotion begin="-7.647460836790394s" dur="10s" repeatCount="indefinite">
    <mpath xlink:href="#path11"></mpath>
  </animateMotion>
</circle><path id="path12" d="M 178.80196087566782 266.0136280132087
c 0 28.82143115685108 -7.052052304335901 8.278496183350843 -15.330548487686745 8.278496183350843
S 148.14086390029433 294.83505917005976 148.14086390029433 266.0136280132087
s 7.052052304335901 -8.278496183350843 15.330548487686745 -8.278496183350843
S 178.80196087566782 237.1921968563576 178.80196087566782 266.0136280132087
z" fill="none" stroke="none"></path>
<circle cx="0" cy="0" r="5.510182025253849" fill="#de9dd6" opacity="0.9">
  <animateMotion begin="-3.963712562206352s" dur="10s" repeatCount="indefinite">
    <mpath xlink:href="#path12"></mpath>
  </animateMotion>
</circle><path id="path13" d="M 1111.9342193986147 248.274020978962
c 0 34.686456312157596 -8.48711165084707 9.963131068385692 -18.45024271923276 9.963131068385692
S 1075.033733960149 282.9604772911196 1075.033733960149 248.274020978962
s 8.48711165084707 -9.963131068385692 18.45024271923276 -9.963131068385692
S 1111.9342193986147 213.5875646668044 1111.9342193986147 248.274020978962
z" fill="none" stroke="none"></path>
<circle cx="0" cy="0" r="6.523871868442969" fill="#ff708e" opacity="0.9">
  <animateMotion begin="-3.1302225111640047s" dur="10s" repeatCount="indefinite">
    <mpath xlink:href="#path13"></mpath>
  </animateMotion>
</circle><path id="path14" d="M 732.4581248896842 321.5214933804016
c 0 35.412882531274164 -8.664854236375591 10.171785407919174 -18.836639644294767 10.171785407919174
S 694.7848456010946 356.9343759116757 694.7848456010946 321.5214933804016
s 8.664854236375591 -10.171785407919174 18.836639644294767 -10.171785407919174
S 732.4581248896842 286.10861084912744 732.4581248896842 321.5214933804016
z" fill="none" stroke="none"></path>
<circle cx="0" cy="0" r="7.088159463545305" fill="#ff708e" opacity="0.9">
  <animateMotion begin="-7.118267660234987s" dur="10s" repeatCount="indefinite">
    <mpath xlink:href="#path14"></mpath>
  </animateMotion>
</circle><path id="path15" d="M 391.4695644367464 400.3319794857687
c 0 29.04881532262179 -7.107688855535118 8.343808656497748 -15.451497512032866 8.343808656497748
S 360.5665694126807 429.38079480839053 360.5665694126807 400.3319794857687
s 7.107688855535118 -8.343808656497748 15.451497512032866 -8.343808656497748
S 391.4695644367464 371.2831641631469 391.4695644367464 400.3319794857687
z" fill="none" stroke="none"></path>
<circle cx="0" cy="0" r="5.590794701169827" fill="#9df871" opacity="0.9">
  <animateMotion begin="-4.763384561910842s" dur="10s" repeatCount="indefinite">
    <mpath xlink:href="#path15"></mpath>
  </animateMotion>
</circle><path id="path16" d="M 416.6877992934399 302.6813279786862
c 0 28.99881064185264 -7.095453667687347 8.329445609893844 -15.42489927758119 8.329445609893844
S 385.8380007382776 331.68013862053886 385.8380007382776 302.6813279786862
s 7.095453667687347 -8.329445609893844 15.42489927758119 -8.329445609893844
S 416.6877992934399 273.6825173368336 416.6877992934399 302.6813279786862
z" fill="none" stroke="none"></path>
<circle cx="0" cy="0" r="7.078999125550608" fill="#9df871" opacity="0.9">
  <animateMotion begin="-6.902512934548389s" dur="10s" repeatCount="indefinite">
    <mpath xlink:href="#path16"></mpath>
  </animateMotion>
</circle><path id="path17" d="M 1040.4192912311958 369.5674000321617
c 0 29.875665311010046 -7.310003214396074 8.581308121247567 -15.89131133564364 8.581308121247567
S 1008.6366685599085 399.4430653431717 1008.6366685599085 369.5674000321617
s 7.310003214396074 -8.581308121247567 15.89131133564364 -8.581308121247567
S 1040.4192912311958 339.69173472115165 1040.4192912311958 369.5674000321617
z" fill="none" stroke="none"></path>
<circle cx="0" cy="0" r="5.196723292028603" fill="#e0ff77" opacity="0.9">
  <animateMotion begin="-4.745903189055434s" dur="10s" repeatCount="indefinite">
    <mpath xlink:href="#path17"></mpath>
  </animateMotion>
</circle><path id="path18" d="M 713.5110568384555 118.86112625995015
c 0 28.677751033223483 -7.016896529405746 8.237226360606746 -15.254122890012491 8.237226360606746
S 683.0028110584306 147.53887729317364 683.0028110584306 118.86112625995015
s 7.016896529405746 -8.237226360606746 15.254122890012491 -8.237226360606746
S 713.5110568384555 90.18337522672667 713.5110568384555 118.86112625995015
z" fill="none" stroke="none"></path>
<circle cx="0" cy="0" r="6.074092129269909" fill="#e0ff77" opacity="0.9">
  <animateMotion begin="-7.177842881858146s" dur="10s" repeatCount="indefinite">
    <mpath xlink:href="#path18"></mpath>
  </animateMotion>
</circle><path id="path19" d="M 1325.5935413095842 33.27686437086398
c 0 25.175943105884908 -6.160071185482478 7.231387913392474 -13.391459098874952 7.231387913392474
S 1298.8106231118343 58.45280747674889 1298.8106231118343 33.27686437086398
s 6.160071185482478 -7.231387913392474 13.391459098874952 -7.231387913392474
S 1325.5935413095842 8.100921264979075 1325.5935413095842 33.27686437086398
z" fill="none" stroke="none"></path>
<circle cx="0" cy="0" r="7.058984665319563" fill="#e0ff77" opacity="0.9">
  <animateMotion begin="-7.895328059867898s" dur="10s" repeatCount="indefinite">
    <mpath xlink:href="#path19"></mpath>
  </animateMotion>
</circle><path id="path20" d="M 848.7145754739814 36.243131631393716
c 0 23.144939270035604 -5.663123438412966 6.648014471180439 -12.311137909593405 6.648014471180439
S 824.0922996547946 59.388070901429316 824.0922996547946 36.243131631393716
s 5.663123438412966 -6.648014471180439 12.311137909593405 -6.648014471180439
S 848.7145754739814 13.098192361358112 848.7145754739814 36.243131631393716
z" fill="none" stroke="none"></path>
<circle cx="0" cy="0" r="7.884852956013163" fill="#ff708e" opacity="0.9">
  <animateMotion begin="-2.4304541173233396s" dur="10s" repeatCount="indefinite">
    <mpath xlink:href="#path20"></mpath>
  </animateMotion>
</circle><path id="path21" d="M 982.4502005297727 191.2070318986538
c 0 35.698322924275786 -8.734696034663223 10.253773605909002 -18.988469640572227 10.253773605909002
S 944.4732612486282 226.9053548229296 944.4732612486282 191.2070318986538
s 8.734696034663223 -10.253773605909002 18.988469640572227 -10.253773605909002
S 982.4502005297727 155.508708974378 982.4502005297727 191.2070318986538
z" fill="none" stroke="none"></path>
<circle cx="0" cy="0" r="7.54958827046972" fill="#51cacc" opacity="0.9">
  <animateMotion begin="-1.5023313287909712s" dur="10s" repeatCount="indefinite">
    <mpath xlink:href="#path21"></mpath>
  </animateMotion>
</circle><path id="path22" d="M 1140.886099179265 166.41502090149817
c 0 33.18793269903791 -8.120451617849701 9.53270407312791 -17.653155690977613 9.53270407312791
S 1105.5797877973098 199.60295360053607 1105.5797877973098 166.41502090149817
s 8.120451617849701 -9.53270407312791 17.653155690977613 -9.53270407312791
S 1140.886099179265 133.22708820246027 1140.886099179265 166.41502090149817
z" fill="none" stroke="none"></path>
<circle cx="0" cy="0" r="5.420017558690849" fill="#9df871" opacity="0.9">
  <animateMotion begin="-8.720859630460236s" dur="10s" repeatCount="indefinite">
    <mpath xlink:href="#path22"></mpath>
  </animateMotion>
</circle><path id="path23" d="M 1025.833993456315 81.21863481850399
c 0 33.561065818538026 -8.21175014708909 9.639880607452412 -17.8516307545415 9.639880607452412
S 990.130731947232 114.77970063704201 990.130731947232 81.21863481850399
s 8.21175014708909 -9.639880607452412 17.8516307545415 -9.639880607452412
S 1025.833993456315 47.65756899996596 1025.833993456315 81.21863481850399
z" fill="none" stroke="none"></path>
<circle cx="0" cy="0" r="4.958321892003904" fill="#51cacc" opacity="0.9">
  <animateMotion begin="-6.725503438062457s" dur="10s" repeatCount="indefinite">
    <mpath xlink:href="#path23"></mpath>
  </animateMotion>
</circle><path id="path24" d="M 55.20942865364968 467.12158221074816
c 0 31.347202950182755 -7.670060296321311 9.003983826116324 -16.674044122437635 9.003983826116324
S 21.86134040877441 498.4687851609309 21.86134040877441 467.12158221074816
s 7.670060296321311 -9.003983826116324 16.674044122437635 -9.003983826116324
S 55.20942865364968 435.7743792605654 55.20942865364968 467.12158221074816
z" fill="none" stroke="none"></path>
<circle cx="0" cy="0" r="6.432480555119919" fill="#de9dd6" opacity="0.9">
  <animateMotion begin="-9.330587602708407s" dur="10s" repeatCount="indefinite">
    <mpath xlink:href="#path24"></mpath>
  </animateMotion>
</circle><path id="path25" d="M 216.20520683854397 140.9099984037718
c 0 25.87529586004209 -6.33118941256349 7.43226583213975 -13.76345524470324 7.43226583213975
S 188.6782963491375 166.78529426381388 188.6782963491375 140.9099984037718
s 6.33118941256349 -7.43226583213975 13.76345524470324 -7.43226583213975
S 216.20520683854397 115.03470254372971 216.20520683854397 140.9099984037718
z" fill="none" stroke="none"></path>
<circle cx="0" cy="0" r="4.913334923427249" fill="#de9dd6" opacity="0.9">
  <animateMotion begin="-7.481860670026343s" dur="10s" repeatCount="indefinite">
    <mpath xlink:href="#path25"></mpath>
  </animateMotion>
</circle><path id="path26" d="M 401.2715509491152 239.91459955603338
c 0 21.209090666025954 -5.1894583544531585 6.091972850879796 -11.281431205332954 6.091972850879796
S 378.7086885384492 261.12369022205934 378.7086885384492 239.91459955603338
s 5.1894583544531585 -6.091972850879796 11.281431205332954 -6.091972850879796
S 401.2715509491152 218.70550889000742 401.2715509491152 239.91459955603338
z" fill="none" stroke="none"></path>
<circle cx="0" cy="0" r="5.7744330723468575" fill="#ff708e" opacity="0.9">
  <animateMotion begin="-6.929530637907475s" dur="10s" repeatCount="indefinite">
    <mpath xlink:href="#path26"></mpath>
  </animateMotion>
</circle><path id="path27" d="M 1208.583153622754 68.06518585020982
c 0 25.97955928222134 -6.356700675437136 7.462213836382726 -13.818914511819862 7.462213836382726
S 1180.9453245991142 94.04474513243116 1180.9453245991142 68.06518585020982
s 6.356700675437136 -7.462213836382726 13.818914511819862 -7.462213836382726
S 1208.583153622754 42.08562656798847 1208.583153622754 68.06518585020982
z" fill="none" stroke="none"></path>
<circle cx="0" cy="0" r="4.270506277389366" fill="#e0ff77" opacity="0.9">
  <animateMotion begin="-2.5849398686475578s" dur="10s" repeatCount="indefinite">
    <mpath xlink:href="#path27"></mpath>
  </animateMotion>
</circle><path id="path28" d="M 291.43184272260385 440.7788277134957
c 0 30.266699069588277 -7.405681687239684 8.69362632849876 -16.099308015738444 8.69362632849876
S 259.233226691127 471.045526783084 259.233226691127 440.7788277134957
s 7.405681687239684 -8.69362632849876 16.099308015738444 -8.69362632849876
S 291.43184272260385 410.5121286439074 291.43184272260385 440.7788277134957
z" fill="none" stroke="none"></path>
<circle cx="0" cy="0" r="6.522042419739143" fill="#de9dd6" opacity="0.9">
  <animateMotion begin="-2.5955008012368297s" dur="10s" repeatCount="indefinite">
    <mpath xlink:href="#path28"></mpath>
  </animateMotion>
</circle><path id="path29" d="M 507.27975202788207 10.381689258821584
c 0 20.467152974368336 -5.007920408622039 5.878863088382394 -10.886783497004433 5.878863088382394
S 485.5061850338732 30.84884223318992 485.5061850338732 10.381689258821584
s 5.007920408622039 -5.878863088382394 10.886783497004433 -5.878863088382394
S 507.27975202788207 -10.085463715546751 507.27975202788207 10.381689258821584
z" fill="none" stroke="none"></path>
<circle cx="0" cy="0" r="4.696829811000331" fill="#de9dd6" opacity="0.9">
  <animateMotion begin="-3.771882346647293s" dur="10s" repeatCount="indefinite">
    <mpath xlink:href="#path29"></mpath>
  </animateMotion>
</circle></g>
</svg>